<svg width="600" height="600" viewBox="0 0 600 600" fill="none" xmlns="http://www.w3.org/2000/svg">
  <path d="M420 126C386 96 342 78 294 78C188 78 102 164 102 300C102 436 188 522 294 522C344 522 390 504 424 472" stroke="#EB0034" stroke-width="52" stroke-linecap="round"/>
  <path d="M370 188C348 170 320 160 290 160C218 160 164 218 164 300C164 382 218 440 290 440C322 440 352 428 374 408" stroke="#EB0034" stroke-width="44" stroke-linecap="round"/>
  <path d="M324 246C312 238 298 234 284 234C246 234 218 262 218 300C218 338 246 366 284 366C300 366 316 360 328 350" stroke="#EB0034" stroke-width="36" stroke-linecap="round"/>
</svg>
