<?xml version="1.0" encoding="UTF-8"?><svg id="_レイヤー_2" xmlns="http://www.w3.org/2000/svg" viewBox="0 0 822.05 574.26"><defs><style>.cls-1{fill:#e6002d;}.cls-2{fill:#231815;}.cls-3{font-family:HiraKakuPro-W3-83pv-RKSJ-H, 'Hiragino Kaku Gothic Pro';font-size:8px;}.cls-3,.cls-4{fill:#fff;}.cls-5{letter-spacing:-.09em;}.cls-6{letter-spacing:-.04em;}.cls-7{letter-spacing:0em;}</style></defs><rect class="cls-1" width="822.05" height="22.68"/><rect class="cls-1" y="551.58" width="822.05" height="22.68"/><text class="cls-3" transform="translate(764.17 14.89)"><tspan x="0" y="0">Cignals</tspan><tspan class="cls-6" x="28.78" y="0">様</tspan><tspan class="cls-5" x="36.49" y="0">ロ</tspan><tspan class="cls-7" x="43.75" y="0">ゴ</tspan></text><path class="cls-1" d="M121.39,203.71c-.32,0-.64,0-.96-.01-11.13-.26-21.4-4.94-28.92-13.19-6.34-6.95-9.98-16.86-9.98-27.17,0-10.31,3.64-20.21,9.98-27.17,13.65-14.97,36.43-17.52,52.98-5.92,2.08,1.46,3.41,3.76,3.63,6.32.23,2.6-.7,5.14-2.54,6.99-2.82,2.82-7.29,3.13-10.63.74-9.44-6.75-22.59-5.47-30.59,2.98-8.38,8.86-8.38,23.27,0,32.13,7.41,7.83,19.12,9.61,28.49,4.32.7-.39,1.16-1.07,1.27-1.86.06-.44.05-1.3-.68-2.03s-2.01-.89-3.09-.29c-8.58,4.76-19.16,2.1-24.59-6.19-3.92-5.99-3.92-14.04,0-20.03,3.13-4.77,8.12-7.84,13.7-8.42,5.58-.58,11.05,1.37,15.01,5.33,1.22,1.22,1.22,3.21,0,4.43s-3.21,1.22-4.43,0c-2.62-2.62-6.24-3.91-9.94-3.53-3.75.39-6.98,2.38-9.1,5.62-2.58,3.94-2.58,9.23,0,13.16,3.61,5.52,10.62,7.3,16.3,4.15,3.55-1.97,7.79-1.43,10.56,1.34,1.94,1.94,2.83,4.6,2.46,7.31-.38,2.74-1.98,5.1-4.4,6.47-11.88,6.7-26.73,4.45-36.12-5.48-10.63-11.23-10.63-29.51,0-40.74,10.14-10.72,26.82-12.34,38.79-3.77.85.61,1.9.58,2.55-.07.53-.53.79-1.26.73-2.01-.04-.41-.21-1.19-.98-1.73-13.98-9.79-33.22-7.64-44.76,5.02-11.15,12.22-11.15,33.66,0,45.89,6.36,6.97,15.04,10.93,24.44,11.15,9.39.22,18.25-3.33,24.9-9.98,1.22-1.22,3.21-1.22,4.43,0,1.22,1.22,1.22,3.21,0,4.43-7.65,7.65-17.74,11.82-28.52,11.82Z"/><rect class="cls-2" x="82.88" y="211.44" width="3.47" height="4.44"/><path class="cls-2" d="M184.31,228.24c-.26-.55-.61-1.04-1.04-1.45-.43-.42-.94-.75-1.51-.99-.58-.24-1.2-.37-1.84-.37h-2.22c-.36,0-.67-.12-.94-.37-.27-.25-.42-.55-.46-.95-.04-.19-.04-.37,0-.58.03-.39.18-.7.45-.95.27-.25.58-.37.94-.37h6.54v-3.47h-6.54c-.64,0-1.26.12-1.82.35-.56.23-1.07.56-1.51.97s-.79.9-1.06,1.45c-.27.56-.41,1.16-.43,1.74-.02.14-.04.33-.04.56s.01.41.03.51c.02.64.17,1.25.44,1.82.27.55.62,1.04,1.06,1.44.44.4.94.72,1.51.95.57.23,1.18.35,1.82.35h2.19c.4,0,.73.13.99.39.27.27.41.6.43.99v.6c-.02.07-.03.15-.03.24v.08c-.09.3-.26.56-.51.79-.25.22-.53.33-.88.33h-12.2c-.57,0-1.05-.15-1.45-.45-.37-.28-.55-.6-.55-.98v-19.75h-3.44v19.75c0,.5.11.97.26,1.42h-6.45v-5.29c0-1.2-.23-2.35-.69-3.41-.45-1.06-1.09-1.99-1.88-2.79-.79-.79-1.74-1.42-2.8-1.88-2.15-.91-4.72-.91-6.82,0-1.04.45-1.97,1.09-2.77,1.88s-1.43,1.73-1.88,2.78c-.3.7-.47,1.46-.57,2.23h-5.85c-.11-.66-.28-1.31-.54-1.92-.46-1.07-1.09-2.01-1.88-2.78-.79-.78-1.72-1.41-2.78-1.86-2.12-.91-4.71-.91-6.8,0-1.05.46-1.98,1.08-2.76,1.86-.79.78-1.43,1.72-1.88,2.79-.46,1.07-.69,2.22-.69,3.42v4.97h-7.7c.24-.31.5-.59.7-.93.77-1.32,1.16-2.8,1.16-4.4,0-1.2-.23-2.35-.69-3.42-.46-1.07-1.09-2-1.88-2.79-.79-.78-1.73-1.41-2.78-1.86-2.13-.91-4.69-.91-6.8,0-1.04.45-1.97,1.08-2.77,1.86-.79.78-1.42,1.72-1.88,2.79s-.69,2.22-.69,3.42.23,2.35.69,3.39c.31.71.73,1.34,1.19,1.94h-7.68v-13.37h-3.47v13.37h-14.31c-.21-.02-.4-.04-.54-.04-2.34,0-4.28-.81-5.81-2.42-1.54-1.61-2.3-3.66-2.3-6.15s.79-4.66,2.37-6.28c1.58-1.61,3.63-2.42,6.14-2.42,1.3,0,2.54.23,3.72.68,1.18.45,2.3,1.13,3.36,2.03l.2-3.78c-1.15-.8-2.34-1.39-3.57-1.79-1.23-.39-2.52-.59-3.87-.59-1.72,0-3.32.29-4.8.87-1.48.58-2.79,1.44-3.93,2.57-1.14,1.12-2.02,2.43-2.62,3.91-.6,1.49-.91,3.07-.91,4.76s.3,3.28.91,4.77c.6,1.5,1.47,2.79,2.59,3.89,1.13,1.12,2.45,1.97,3.94,2.55,1.38.54,2.89.79,4.51.83v.03h33.13c.38.02.75.07,1.09.22.4.17.76.42,1.07.73.31.31.56.67.73,1.06.17.39.26.83.26,1.3s-.1.88-.3,1.27c-.2.4-.49.76-.84,1.07-.35.31-.77.56-1.26.74-.49.18-1,.27-1.54.27h-.35v3.44h.35c1,0,1.96-.18,2.85-.54.89-.36,1.67-.85,2.34-1.45.68-.61,1.21-1.34,1.6-2.16.39-.83.58-1.72.58-2.64,0-.99-.22-1.95-.65-2.85-.08-.17-.18-.31-.27-.47h12.16v-8.41c0-.72.14-1.41.42-2.05.28-.64.66-1.21,1.14-1.7.47-.48,1.03-.86,1.67-1.13,1.31-.54,2.87-.53,4.14,0,.64.27,1.2.65,1.67,1.13.47.48.85,1.05,1.12,1.69s.41,1.33.41,2.05v8.41h3.47v-6.47h5.91c.1.39.2.78.36,1.15.45,1.06,1.08,1.99,1.88,2.77.79.78,1.72,1.4,2.76,1.86,1.05.46,2.19.69,3.4.69,1.13,0,2.21-.2,3.2-.59.71-.28,1.37-.65,1.97-1.09v1.68h27.44c.67,0,1.3-.12,1.89-.37.59-.24,1.1-.59,1.53-1.03.42-.43.77-.94,1.03-1.5.27-.57.4-1.2.4-1.87v-.91c-.02-.65-.17-1.26-.44-1.82ZM96.01,224.91c.28-.65.67-1.22,1.14-1.7.47-.48,1.03-.86,1.67-1.13.64-.27,1.33-.41,2.05-.41s1.45.14,2.09.41c.64.27,1.2.65,1.67,1.13.47.48.85,1.06,1.12,1.7s.41,1.33.41,2.05-.14,1.41-.41,2.05c-.27.64-.65,1.2-1.12,1.67-.47.47-1.04.85-1.68,1.14-1.26.55-2.83.56-4.13,0-.64-.28-1.21-.66-1.68-1.14-.47-.47-.85-1.04-1.14-1.68-.28-.64-.42-1.33-.42-2.05s.14-1.41.42-2.05ZM151.03,230.73c-.47.47-1.03.85-1.68,1.13-1.26.55-2.83.57-4.13,0-.65-.28-1.21-.66-1.68-1.14-.47-.47-.85-1.03-1.13-1.68-.28-.64-.42-1.33-.42-2.05s.14-1.41.42-2.05c.28-.65.67-1.22,1.14-1.7.46-.48,1.03-.86,1.67-1.13.64-.27,1.33-.41,2.05-.41s1.44.14,2.09.41c.64.27,1.21.65,1.67,1.13.47.48.85,1.05,1.12,1.69.27.64.41,1.33.41,2.05s-.14,1.42-.41,2.05c-.27.64-.65,1.21-1.12,1.68Z"/><path class="cls-1" d="M458.74,201.38c-.15,0-.31,0-.46,0-5.33-.12-10.26-2.37-13.86-6.32-6.33-6.94-6.33-19.1,0-26.04,6.54-7.17,17.46-8.39,25.39-2.84,1,.7,1.63,1.8,1.74,3.03.11,1.25-.33,2.47-1.22,3.35-1.35,1.35-3.5,1.5-5.1.35-4.52-3.24-10.83-2.62-14.66,1.43-4.02,4.25-4.02,11.15,0,15.4,3.55,3.75,9.16,4.6,13.65,2.07.34-.19.56-.51.61-.89.03-.21.03-.62-.33-.97-.37-.37-.96-.43-1.48-.14-4.11,2.28-9.18,1.01-11.78-2.97-1.88-2.87-1.88-6.73,0-9.6,1.5-2.29,3.89-3.76,6.56-4.03,2.68-.28,5.3.66,7.19,2.55.59.59.59,1.54,0,2.12-.59.59-1.54.59-2.12,0-1.26-1.26-2.99-1.88-4.76-1.69-1.8.18-3.34,1.14-4.36,2.69-1.24,1.89-1.24,4.42,0,6.31,1.73,2.64,5.09,3.5,7.81,1.99,1.7-.94,3.73-.68,5.06.64.93.93,1.36,2.21,1.18,3.5-.18,1.32-.95,2.44-2.11,3.1-5.69,3.21-12.81,2.13-17.31-2.62-5.09-5.38-5.09-14.14,0-19.52,4.86-5.14,12.85-5.91,18.59-1.81.41.29.91.28,1.22-.04.25-.25.38-.6.35-.96-.02-.2-.1-.57-.47-.83-6.7-4.69-15.92-3.66-21.45,2.4-5.34,5.86-5.34,16.13,0,21.99,3.05,3.34,7.21,5.24,11.71,5.34,4.5.09,8.75-1.59,11.93-4.78.59-.59,1.54-.59,2.12,0,.59.59.59,1.54,0,2.12-3.66,3.66-8.5,5.67-13.67,5.67Z"/><rect class="cls-2" x="503.73" y="172.13" width="2.84" height="3.63"/><path class="cls-2" d="M586.78,185.87c-.22-.45-.5-.85-.85-1.19-.35-.34-.77-.61-1.24-.81-.48-.2-.98-.3-1.51-.3h-1.82c-.3,0-.55-.1-.77-.31-.22-.21-.34-.45-.37-.78-.03-.16-.03-.31,0-.48.03-.32.15-.57.37-.78.22-.2.47-.31.77-.31h5.35v-2.84h-5.35c-.53,0-1.03.1-1.49.29-.46.19-.88.46-1.24.8s-.65.74-.87,1.19c-.22.46-.34.95-.35,1.42-.02.12-.03.27-.03.46s.01.34.03.42c.02.53.14,1.03.36,1.49.22.45.51.85.87,1.18.36.33.77.59,1.23.78.47.19.97.29,1.49.29h1.79c.33,0,.59.11.81.32.22.22.34.49.35.81v.49c-.02.06-.03.12-.03.2v.07c-.08.25-.21.46-.42.64-.2.18-.44.27-.72.27h-9.99c-.47,0-.86-.12-1.19-.36-.3-.23-.45-.49-.45-.8v-16.17h-2.82v16.17c0,.41.09.79.22,1.16h-5.28v-4.33c0-.98-.19-1.92-.56-2.79-.37-.86-.89-1.63-1.54-2.28-.65-.65-1.42-1.17-2.29-1.54-1.76-.75-3.87-.75-5.58,0-.85.37-1.62.89-2.27,1.54s-1.17,1.42-1.54,2.28c-.25.58-.38,1.19-.47,1.83h-4.79c-.09-.54-.23-1.07-.44-1.57-.37-.88-.89-1.64-1.54-2.28-.64-.64-1.41-1.15-2.28-1.52-1.74-.75-3.85-.75-5.57,0-.86.37-1.62.89-2.26,1.52-.65.64-1.17,1.41-1.54,2.28-.37.88-.56,1.82-.56,2.8v4.07h-6.3c.2-.25.41-.48.57-.76.63-1.08.95-2.29.95-3.6,0-.98-.19-1.93-.56-2.8-.37-.87-.89-1.64-1.54-2.28-.65-.64-1.42-1.15-2.28-1.52-1.75-.75-3.84-.75-5.57,0-.85.37-1.61.88-2.26,1.52-.65.64-1.17,1.41-1.54,2.28s-.56,1.82-.56,2.8.19,1.92.56,2.78c.25.58.59,1.1.97,1.59h-6.29v-10.95h-2.84v10.95h-11.72c-.18-.02-.33-.03-.44-.03-1.92,0-3.5-.66-4.76-1.98-1.26-1.32-1.89-3-1.89-5.04s.65-3.82,1.94-5.14c1.29-1.32,2.97-1.98,5.03-1.98,1.07,0,2.08.18,3.05.55.97.37,1.88.92,2.75,1.66l.17-3.09c-.94-.65-1.92-1.14-2.92-1.46-1-.32-2.06-.48-3.17-.48-1.41,0-2.72.24-3.93.71-1.21.48-2.28,1.18-3.22,2.11-.94.92-1.65,1.99-2.14,3.2-.49,1.22-.74,2.51-.74,3.9s.25,2.69.74,3.91c.49,1.22,1.2,2.29,2.12,3.19.93.92,2,1.62,3.23,2.09,1.13.44,2.37.65,3.69.68v.03h27.13c.31.02.62.06.89.18.33.14.62.34.87.6.25.25.46.54.6.87.14.32.21.68.21,1.06s-.08.72-.25,1.04c-.17.33-.4.62-.69.88-.28.25-.63.46-1.03.6-.4.14-.82.22-1.26.22h-.29v2.82h.29c.82,0,1.61-.15,2.34-.44.73-.3,1.37-.69,1.92-1.19.55-.5.99-1.09,1.31-1.77.32-.68.48-1.41.48-2.16,0-.81-.18-1.6-.53-2.33-.07-.14-.15-.26-.22-.38h9.95v-6.88c0-.59.12-1.16.35-1.68.23-.53.54-.99.93-1.39.38-.39.85-.71,1.37-.93,1.07-.45,2.35-.43,3.39,0,.52.22.98.53,1.37.93.39.4.69.86.92,1.39s.33,1.09.33,1.68v6.88h2.84v-5.3h4.84c.09.32.16.64.29.94.37.87.89,1.63,1.54,2.27.65.64,1.41,1.15,2.26,1.52.86.37,1.79.56,2.78.56.93,0,1.81-.16,2.62-.48.58-.23,1.12-.53,1.62-.89v1.38h22.47c.55,0,1.07-.1,1.55-.3.48-.2.9-.48,1.26-.84.35-.35.63-.77.85-1.22.22-.47.33-.98.33-1.53v-.75c-.02-.53-.14-1.03-.36-1.49ZM514.48,183.15c.23-.53.55-1,.93-1.39.38-.39.85-.7,1.37-.93.52-.22,1.09-.33,1.68-.33s1.18.11,1.71.33c.53.22.99.53,1.37.92.39.4.69.86.92,1.39s.33,1.09.33,1.68-.11,1.16-.33,1.68c-.22.52-.53.98-.91,1.37-.39.39-.85.7-1.38.93-1.03.45-2.32.46-3.38,0-.53-.23-.99-.54-1.38-.93-.39-.39-.7-.85-.93-1.38-.23-.52-.34-1.09-.34-1.68s.12-1.16.34-1.68ZM559.53,187.92c-.38.38-.84.7-1.38.93-1.03.45-2.32.47-3.38,0-.53-.23-.99-.54-1.38-.93-.38-.38-.7-.84-.93-1.38-.23-.52-.35-1.09-.35-1.68s.12-1.16.35-1.68c.23-.53.54-1,.93-1.39.38-.39.84-.7,1.37-.92.53-.22,1.09-.33,1.68-.33s1.18.11,1.71.33c.53.22.99.53,1.37.93.39.39.7.86.92,1.39.22.52.33,1.09.33,1.68s-.11,1.16-.33,1.68c-.22.53-.53.99-.92,1.37Z"/><path class="cls-2" d="M307.92,203.71c-.32,0-.64,0-.96-.01-11.13-.26-21.4-4.94-28.92-13.19-6.34-6.95-9.98-16.86-9.98-27.17,0-10.31,3.64-20.21,9.98-27.17,13.65-14.97,36.43-17.52,52.98-5.92,2.08,1.46,3.41,3.76,3.63,6.32.23,2.6-.7,5.14-2.54,6.99-2.82,2.82-7.29,3.13-10.63.74-9.44-6.75-22.59-5.47-30.59,2.98-8.38,8.86-8.38,23.27,0,32.13,7.41,7.83,19.12,9.61,28.49,4.32.7-.39,1.16-1.07,1.27-1.86.06-.44.05-1.3-.68-2.03s-2.01-.89-3.09-.29c-8.58,4.76-19.16,2.1-24.59-6.19-3.92-5.99-3.92-14.04,0-20.03,3.13-4.77,8.12-7.84,13.7-8.42,5.58-.58,11.05,1.37,15.01,5.33,1.22,1.22,1.22,3.21,0,4.43s-3.21,1.22-4.43,0c-2.62-2.62-6.24-3.91-9.94-3.53-3.75.39-6.98,2.38-9.1,5.62-2.58,3.94-2.58,9.23,0,13.16,3.61,5.52,10.62,7.3,16.3,4.15,3.55-1.97,7.79-1.43,10.56,1.34,1.94,1.94,2.83,4.6,2.46,7.31-.38,2.74-1.98,5.1-4.4,6.47-11.88,6.7-26.73,4.45-36.12-5.48-10.63-11.23-10.63-29.51,0-40.74,10.14-10.72,26.82-12.34,38.79-3.77.85.61,1.9.58,2.55-.07.53-.53.79-1.26.73-2.01-.04-.41-.21-1.19-.98-1.73-13.98-9.79-33.22-7.64-44.76,5.02-11.15,12.22-11.15,33.66,0,45.89,6.36,6.97,15.04,10.93,24.44,11.15,9.39.22,18.25-3.33,24.9-9.98,1.22-1.22,3.21-1.22,4.43,0,1.22,1.22,1.22,3.21,0,4.43-7.65,7.65-17.74,11.82-28.52,11.82Z"/><rect class="cls-2" x="269.41" y="211.44" width="3.47" height="4.44"/><path class="cls-2" d="M370.84,228.24c-.26-.55-.61-1.04-1.04-1.45-.43-.42-.94-.75-1.51-.99-.58-.24-1.2-.37-1.84-.37h-2.22c-.36,0-.67-.12-.94-.37-.27-.25-.42-.55-.46-.95-.04-.19-.04-.37,0-.58.03-.39.18-.7.45-.95.27-.25.58-.37.94-.37h6.54v-3.47h-6.54c-.64,0-1.26.12-1.82.35-.56.23-1.07.56-1.51.97s-.79.9-1.06,1.45c-.27.56-.41,1.16-.43,1.74-.02.14-.04.33-.04.56s.01.41.03.51c.02.64.17,1.25.44,1.82.27.55.62,1.04,1.06,1.44.44.4.94.72,1.51.95.57.23,1.18.35,1.82.35h2.19c.4,0,.73.13.99.39.27.27.41.6.43.99v.6c-.02.07-.03.15-.03.24v.08c-.09.3-.26.56-.51.79-.25.22-.53.33-.88.33h-12.2c-.57,0-1.05-.15-1.45-.45-.37-.28-.55-.6-.55-.98v-19.75h-3.44v19.75c0,.5.11.97.26,1.42h-6.45v-5.29c0-1.2-.23-2.35-.69-3.41-.45-1.06-1.09-1.99-1.88-2.79-.79-.79-1.74-1.42-2.8-1.88-2.15-.91-4.72-.91-6.82,0-1.04.45-1.97,1.09-2.77,1.88s-1.43,1.73-1.88,2.78c-.3.7-.47,1.46-.57,2.23h-5.85c-.11-.66-.28-1.31-.54-1.92-.46-1.07-1.09-2.01-1.88-2.78-.79-.78-1.72-1.41-2.78-1.86-2.12-.91-4.71-.91-6.8,0-1.05.46-1.98,1.08-2.76,1.86-.79.78-1.43,1.72-1.88,2.79-.46,1.07-.69,2.22-.69,3.42v4.97h-7.7c.24-.31.5-.59.7-.93.77-1.32,1.16-2.8,1.16-4.4,0-1.2-.23-2.35-.69-3.42-.46-1.07-1.09-2-1.88-2.79-.79-.78-1.73-1.41-2.78-1.86-2.13-.91-4.69-.91-6.8,0-1.04.45-1.97,1.08-2.77,1.86-.79.78-1.42,1.72-1.88,2.79s-.69,2.22-.69,3.42.23,2.35.69,3.39c.31.71.73,1.34,1.19,1.94h-7.68v-13.37h-3.47v13.37h-14.31c-.21-.02-.4-.04-.54-.04-2.34,0-4.28-.81-5.81-2.42-1.54-1.61-2.3-3.66-2.3-6.15s.79-4.66,2.37-6.28c1.58-1.61,3.63-2.42,6.14-2.42,1.3,0,2.54.23,3.72.68,1.18.45,2.3,1.13,3.36,2.03l.2-3.78c-1.15-.8-2.34-1.39-3.57-1.79-1.23-.39-2.52-.59-3.87-.59-1.72,0-3.32.29-4.8.87-1.48.58-2.79,1.44-3.93,2.57-1.14,1.12-2.02,2.43-2.62,3.91-.6,1.49-.91,3.07-.91,4.76s.3,3.28.91,4.77c.6,1.5,1.47,2.79,2.59,3.89,1.13,1.12,2.45,1.97,3.94,2.55,1.38.54,2.89.79,4.51.83v.03h33.13c.38.02.75.07,1.09.22.4.17.76.42,1.07.73.31.31.56.67.73,1.06.17.39.26.83.26,1.3s-.1.88-.3,1.27c-.2.4-.49.76-.84,1.07-.35.31-.77.56-1.26.74-.49.18-1,.27-1.54.27h-.35v3.44h.35c1,0,1.96-.18,2.85-.54.89-.36,1.67-.85,2.34-1.45.68-.61,1.21-1.34,1.6-2.16.39-.83.58-1.72.58-2.64,0-.99-.22-1.95-.65-2.85-.08-.17-.18-.31-.27-.47h12.16v-8.41c0-.72.14-1.41.42-2.05.28-.64.66-1.21,1.14-1.7.47-.48,1.03-.86,1.67-1.13,1.31-.54,2.87-.53,4.14,0,.64.27,1.2.65,1.67,1.13.47.48.85,1.05,1.12,1.69s.41,1.33.41,2.05v8.41h3.47v-6.47h5.91c.1.39.2.78.36,1.15.45,1.06,1.08,1.99,1.88,2.77.79.78,1.72,1.4,2.76,1.86,1.05.46,2.19.69,3.4.69,1.13,0,2.21-.2,3.2-.59.71-.28,1.37-.65,1.97-1.09v1.68h27.44c.67,0,1.3-.12,1.89-.37.59-.24,1.1-.59,1.53-1.03.42-.43.77-.94,1.03-1.5.27-.57.4-1.2.4-1.87v-.91c-.02-.65-.17-1.26-.44-1.82ZM282.54,224.91c.28-.65.67-1.22,1.14-1.7.47-.48,1.03-.86,1.67-1.13.64-.27,1.33-.41,2.05-.41s1.45.14,2.09.41c.64.27,1.2.65,1.67,1.13.47.48.85,1.06,1.12,1.7s.41,1.33.41,2.05-.14,1.41-.41,2.05c-.27.64-.65,1.2-1.12,1.67-.47.47-1.04.85-1.68,1.14-1.26.55-2.83.56-4.13,0-.64-.28-1.21-.66-1.68-1.14-.47-.47-.85-1.04-1.14-1.68-.28-.64-.42-1.33-.42-2.05s.14-1.41.42-2.05ZM337.56,230.73c-.47.47-1.03.85-1.68,1.13-1.26.55-2.83.57-4.13,0-.65-.28-1.21-.66-1.68-1.14-.47-.47-.85-1.03-1.13-1.68-.28-.64-.42-1.33-.42-2.05s.14-1.41.42-2.05c.28-.65.67-1.22,1.14-1.7.46-.48,1.03-.86,1.67-1.13.64-.27,1.33-.41,2.05-.41s1.44.14,2.09.41c.64.27,1.21.65,1.67,1.13.47.48.85,1.05,1.12,1.69.27.64.41,1.33.41,2.05s-.14,1.42-.41,2.05c-.27.64-.65,1.21-1.12,1.68Z"/><path class="cls-2" d="M646.49,201.38c-.15,0-.31,0-.46,0-5.33-.12-10.26-2.37-13.86-6.32-6.33-6.94-6.33-19.1,0-26.04,6.54-7.17,17.46-8.39,25.39-2.84,1,.7,1.63,1.8,1.74,3.03.11,1.25-.33,2.47-1.22,3.35-1.35,1.35-3.5,1.5-5.1.35-4.52-3.24-10.83-2.62-14.66,1.43-4.02,4.25-4.02,11.15,0,15.4,3.55,3.75,9.16,4.6,13.65,2.07.34-.19.56-.51.61-.89.03-.21.03-.62-.33-.97-.37-.37-.96-.43-1.48-.14-4.11,2.28-9.18,1.01-11.78-2.97-1.88-2.87-1.88-6.73,0-9.6,1.5-2.29,3.89-3.76,6.56-4.03,2.68-.28,5.3.66,7.19,2.55.59.59.59,1.54,0,2.12-.59.59-1.54.59-2.12,0-1.26-1.26-2.99-1.88-4.76-1.69-1.8.18-3.34,1.14-4.36,2.69-1.24,1.89-1.24,4.42,0,6.31,1.73,2.64,5.09,3.5,7.81,1.99,1.7-.94,3.73-.68,5.06.64.93.93,1.36,2.21,1.18,3.5-.18,1.32-.95,2.44-2.11,3.1-5.69,3.21-12.81,2.13-17.31-2.62-5.09-5.38-5.09-14.14,0-19.52,4.86-5.14,12.85-5.91,18.59-1.81.41.29.91.28,1.22-.04.25-.25.38-.6.35-.96-.02-.2-.1-.57-.47-.83-6.7-4.69-15.92-3.66-21.45,2.4-5.34,5.86-5.34,16.13,0,21.99,3.05,3.34,7.21,5.24,11.71,5.34,4.5.09,8.75-1.59,11.93-4.78.59-.59,1.54-.59,2.12,0,.59.59.59,1.54,0,2.12-3.66,3.66-8.5,5.67-13.67,5.67Z"/><rect class="cls-2" x="691.47" y="172.13" width="2.84" height="3.63"/><path class="cls-2" d="M774.53,185.87c-.22-.45-.5-.85-.85-1.19-.35-.34-.77-.61-1.24-.81-.48-.2-.98-.3-1.51-.3h-1.82c-.3,0-.55-.1-.77-.31-.22-.21-.34-.45-.37-.78-.03-.16-.03-.31,0-.48.03-.32.15-.57.37-.78.22-.2.47-.31.77-.31h5.35v-2.84h-5.35c-.53,0-1.03.1-1.49.29-.46.19-.88.46-1.24.8s-.65.74-.87,1.19c-.22.46-.34.95-.35,1.42-.02.12-.03.27-.03.46s.01.34.03.42c.02.53.14,1.03.36,1.49.22.45.51.85.87,1.18.36.33.77.59,1.23.78.47.19.97.29,1.49.29h1.79c.33,0,.59.11.81.32.22.22.34.49.35.81v.49c-.02.06-.03.12-.03.2v.07c-.08.25-.21.46-.42.64-.2.18-.44.27-.72.27h-9.99c-.47,0-.86-.12-1.19-.36-.3-.23-.45-.49-.45-.8v-16.17h-2.82v16.17c0,.41.09.79.22,1.16h-5.28v-4.33c0-.98-.19-1.92-.56-2.79-.37-.86-.89-1.63-1.54-2.28-.65-.65-1.42-1.17-2.29-1.54-1.76-.75-3.87-.75-5.58,0-.85.37-1.62.89-2.27,1.54s-1.17,1.42-1.54,2.28c-.25.58-.38,1.19-.47,1.83h-4.79c-.09-.54-.23-1.07-.44-1.57-.37-.88-.89-1.64-1.54-2.28-.64-.64-1.41-1.15-2.28-1.52-1.74-.75-3.85-.75-5.57,0-.86.37-1.62.89-2.26,1.52-.65.64-1.17,1.41-1.54,2.28-.37.88-.56,1.82-.56,2.8v4.07h-6.3c.2-.25.41-.48.57-.76.63-1.08.95-2.29.95-3.6,0-.98-.19-1.93-.56-2.8-.37-.87-.89-1.64-1.54-2.28-.65-.64-1.42-1.15-2.28-1.52-1.75-.75-3.84-.75-5.57,0-.85.37-1.61.88-2.26,1.52-.65.64-1.17,1.41-1.54,2.28s-.56,1.82-.56,2.8.19,1.92.56,2.78c.25.58.59,1.1.97,1.59h-6.29v-10.95h-2.84v10.95h-11.72c-.18-.02-.33-.03-.44-.03-1.92,0-3.5-.66-4.76-1.98-1.26-1.32-1.89-3-1.89-5.04s.65-3.82,1.94-5.14c1.29-1.32,2.97-1.98,5.03-1.98,1.07,0,2.08.18,3.05.55.97.37,1.88.92,2.75,1.66l.17-3.09c-.94-.65-1.92-1.14-2.92-1.46-1-.32-2.06-.48-3.17-.48-1.41,0-2.72.24-3.93.71-1.21.48-2.28,1.18-3.22,2.11-.94.92-1.65,1.99-2.14,3.2-.49,1.22-.74,2.51-.74,3.9s.25,2.69.74,3.91c.49,1.22,1.2,2.29,2.12,3.19.93.92,2,1.62,3.23,2.09,1.13.44,2.37.65,3.69.68v.03h27.13c.31.02.62.06.89.18.33.14.62.34.87.6.25.25.46.54.6.87.14.32.21.68.21,1.06s-.08.72-.25,1.04c-.17.33-.4.62-.69.88-.28.25-.63.46-1.03.6-.4.14-.82.22-1.26.22h-.29v2.82h.29c.82,0,1.61-.15,2.34-.44.73-.3,1.37-.69,1.92-1.19.55-.5.99-1.09,1.31-1.77.32-.68.48-1.41.48-2.16,0-.81-.18-1.6-.53-2.33-.07-.14-.15-.26-.22-.38h9.95v-6.88c0-.59.12-1.16.35-1.68.23-.53.54-.99.93-1.39.38-.39.85-.71,1.37-.93,1.07-.45,2.35-.43,3.39,0,.52.22.98.53,1.37.93.39.4.69.86.92,1.39s.33,1.09.33,1.68v6.88h2.84v-5.3h4.84c.09.32.16.64.29.94.37.87.89,1.63,1.54,2.27.65.64,1.41,1.15,2.26,1.52.86.37,1.79.56,2.78.56.93,0,1.81-.16,2.62-.48.58-.23,1.12-.53,1.62-.89v1.38h22.47c.55,0,1.07-.1,1.55-.3.48-.2.9-.48,1.26-.84.35-.35.63-.77.85-1.22.22-.47.33-.98.33-1.53v-.75c-.02-.53-.14-1.03-.36-1.49ZM702.23,183.15c.23-.53.55-1,.93-1.39.38-.39.85-.7,1.37-.93.52-.22,1.09-.33,1.68-.33s1.18.11,1.71.33c.53.22.99.53,1.37.92.39.4.69.86.92,1.39s.33,1.09.33,1.68-.11,1.16-.33,1.68c-.22.52-.53.98-.91,1.37-.39.39-.85.7-1.38.93-1.03.45-2.32.46-3.38,0-.53-.23-.99-.54-1.38-.93-.39-.39-.7-.85-.93-1.38-.23-.52-.34-1.09-.34-1.68s.12-1.16.34-1.68ZM747.28,187.92c-.38.38-.84.7-1.38.93-1.03.45-2.32.47-3.38,0-.53-.23-.99-.54-1.38-.93-.38-.38-.7-.84-.93-1.38-.23-.52-.35-1.09-.35-1.68s.12-1.16.35-1.68c.23-.53.54-1,.93-1.39.38-.39.84-.7,1.37-.92.53-.22,1.09-.33,1.68-.33s1.18.11,1.71.33c.53.22.99.53,1.37.93.39.39.7.86.92,1.39.22.52.33,1.09.33,1.68s-.11,1.16-.33,1.68c-.22.53-.53.99-.92,1.37Z"/><rect class="cls-1" x="32.31" y="297.85" width="173.52" height="173.52"/><rect class="cls-2" x="218.61" y="297.85" width="173.52" height="173.52"/><rect class="cls-1" x="426.37" y="297.85" width="173.52" height="173.52"/><rect class="cls-2" x="612.67" y="297.85" width="173.52" height="173.52"/><path class="cls-4" d="M121.39,410.28c-.32,0-.64,0-.96-.01-11.13-.26-21.4-4.94-28.92-13.19-6.34-6.95-9.98-16.86-9.98-27.17,0-10.31,3.64-20.21,9.98-27.17,13.65-14.97,36.43-17.52,52.98-5.92,2.08,1.46,3.41,3.76,3.63,6.32.23,2.6-.7,5.14-2.54,6.99-2.82,2.82-7.29,3.13-10.63.74-9.44-6.75-22.59-5.47-30.59,2.98-8.38,8.86-8.38,23.27,0,32.13,7.41,7.83,19.12,9.61,28.49,4.32.7-.39,1.16-1.07,1.27-1.86.06-.44.05-1.3-.68-2.03s-2.01-.89-3.09-.29c-8.58,4.76-19.16,2.1-24.59-6.19-3.92-5.99-3.92-14.04,0-20.03,3.13-4.77,8.12-7.84,13.7-8.42,5.58-.58,11.05,1.37,15.01,5.33,1.22,1.22,1.22,3.21,0,4.43s-3.21,1.22-4.43,0c-2.62-2.62-6.24-3.91-9.94-3.53-3.75.39-6.98,2.38-9.1,5.62-2.58,3.94-2.58,9.23,0,13.16,3.61,5.52,10.62,7.3,16.3,4.15,3.55-1.97,7.79-1.43,10.56,1.34,1.94,1.94,2.83,4.6,2.46,7.31-.38,2.74-1.98,5.1-4.4,6.47-11.88,6.7-26.73,4.45-36.12-5.48-10.63-11.23-10.63-29.51,0-40.74,10.14-10.72,26.82-12.34,38.79-3.77.85.61,1.9.58,2.55-.07.53-.53.79-1.26.73-2.01-.04-.41-.21-1.19-.98-1.73-13.98-9.79-33.22-7.64-44.76,5.02-11.15,12.22-11.15,33.66,0,45.89,6.36,6.97,15.04,10.93,24.44,11.15,9.39.22,18.25-3.33,24.9-9.98,1.22-1.22,3.21-1.22,4.43,0,1.22,1.22,1.22,3.21,0,4.43-7.65,7.65-17.74,11.82-28.52,11.82Z"/><rect class="cls-4" x="82.88" y="418.02" width="3.47" height="4.44"/><path class="cls-4" d="M184.31,434.81c-.26-.55-.61-1.04-1.04-1.45-.43-.42-.94-.75-1.51-.99-.58-.24-1.2-.37-1.84-.37h-2.22c-.36,0-.67-.12-.94-.37-.27-.25-.42-.55-.46-.95-.04-.19-.04-.37,0-.58.03-.39.18-.7.45-.95.27-.25.58-.37.94-.37h6.54v-3.47h-6.54c-.64,0-1.26.12-1.82.35-.56.23-1.07.56-1.51.97s-.79.9-1.06,1.45c-.27.56-.41,1.16-.43,1.74-.02.14-.04.33-.04.56s.01.41.03.51c.02.64.17,1.25.44,1.82.27.55.62,1.04,1.06,1.44.44.4.94.72,1.51.95.57.23,1.18.35,1.82.35h2.19c.4,0,.73.13.99.39.27.27.41.6.43.99v.6c-.02.07-.03.15-.03.24v.08c-.09.3-.26.56-.51.79-.25.22-.53.33-.88.33h-12.2c-.57,0-1.05-.15-1.45-.45-.37-.28-.55-.6-.55-.98v-19.75h-3.44v19.75c0,.5.11.97.26,1.42h-6.45v-5.29c0-1.2-.23-2.35-.69-3.41-.45-1.06-1.09-1.99-1.88-2.79-.79-.79-1.74-1.42-2.8-1.88-2.15-.91-4.72-.91-6.82,0-1.04.45-1.97,1.09-2.77,1.88s-1.43,1.73-1.88,2.78c-.3.7-.47,1.46-.57,2.23h-5.85c-.11-.66-.28-1.31-.54-1.92-.46-1.07-1.09-2.01-1.88-2.78-.79-.78-1.72-1.41-2.78-1.86-2.12-.91-4.71-.91-6.8,0-1.05.46-1.98,1.08-2.76,1.86-.79.78-1.43,1.72-1.88,2.79-.46,1.07-.69,2.22-.69,3.42v4.97h-7.7c.24-.31.5-.59.7-.93.77-1.32,1.16-2.8,1.16-4.4,0-1.2-.23-2.35-.69-3.42-.46-1.07-1.09-2-1.88-2.79-.79-.78-1.73-1.41-2.78-1.86-2.13-.91-4.69-.91-6.8,0-1.04.45-1.97,1.08-2.77,1.86-.79.78-1.42,1.72-1.88,2.79s-.69,2.22-.69,3.42.23,2.35.69,3.39c.31.71.73,1.34,1.19,1.94h-7.68v-13.37h-3.47v13.37h-14.31c-.21-.02-.4-.04-.54-.04-2.34,0-4.28-.81-5.81-2.42-1.54-1.61-2.3-3.66-2.3-6.15s.79-4.66,2.37-6.28c1.58-1.61,3.63-2.42,6.14-2.42,1.3,0,2.54.23,3.72.68,1.18.45,2.3,1.13,3.36,2.03l.2-3.78c-1.15-.8-2.34-1.39-3.57-1.79-1.23-.39-2.52-.59-3.87-.59-1.72,0-3.32.29-4.8.87-1.48.58-2.79,1.44-3.93,2.57-1.14,1.12-2.02,2.43-2.62,3.91-.6,1.49-.91,3.07-.91,4.76s.3,3.28.91,4.77c.6,1.5,1.47,2.79,2.59,3.89,1.13,1.12,2.45,1.97,3.94,2.55,1.38.54,2.89.79,4.51.83v.03h33.13c.38.02.75.07,1.09.22.4.17.76.42,1.07.73.31.31.56.67.73,1.06.17.39.26.83.26,1.3s-.1.88-.3,1.27c-.2.4-.49.76-.84,1.07-.35.31-.77.56-1.26.74-.49.18-1,.27-1.54.27h-.35v3.44h.35c1,0,1.96-.18,2.85-.54.89-.36,1.67-.85,2.34-1.45.68-.61,1.21-1.34,1.6-2.16.39-.83.58-1.72.58-2.64,0-.99-.22-1.95-.65-2.85-.08-.17-.18-.31-.27-.47h12.16v-8.41c0-.72.14-1.41.42-2.05.28-.64.66-1.21,1.14-1.7.47-.48,1.03-.86,1.67-1.13,1.31-.54,2.87-.53,4.14,0,.64.27,1.2.65,1.67,1.13.47.48.85,1.05,1.12,1.69s.41,1.33.41,2.05v8.41h3.47v-6.47h5.91c.1.39.2.78.36,1.15.45,1.06,1.08,1.99,1.88,2.77.79.78,1.72,1.4,2.76,1.86,1.05.46,2.19.69,3.4.69,1.13,0,2.21-.2,3.2-.59.71-.28,1.37-.65,1.97-1.09v1.68h27.44c.67,0,1.3-.12,1.89-.37.59-.24,1.1-.59,1.53-1.03.42-.43.77-.94,1.03-1.5.27-.57.4-1.2.4-1.87v-.91c-.02-.65-.17-1.26-.44-1.82ZM96.01,431.48c.28-.65.67-1.22,1.14-1.7.47-.48,1.03-.86,1.67-1.13.64-.27,1.33-.41,2.05-.41s1.45.14,2.09.41c.64.27,1.2.65,1.67,1.13.47.48.85,1.06,1.12,1.7s.41,1.33.41,2.05-.14,1.41-.41,2.05c-.27.64-.65,1.2-1.12,1.67-.47.47-1.04.85-1.68,1.14-1.26.55-2.83.56-4.13,0-.64-.28-1.21-.66-1.68-1.14-.47-.47-.85-1.04-1.14-1.68-.28-.64-.42-1.33-.42-2.05s.14-1.41.42-2.05ZM151.03,437.31c-.47.47-1.03.85-1.68,1.13-1.26.55-2.83.57-4.13,0-.65-.28-1.21-.66-1.68-1.14-.47-.47-.85-1.03-1.13-1.68-.28-.64-.42-1.33-.42-2.05s.14-1.41.42-2.05c.28-.65.67-1.22,1.14-1.7.46-.48,1.03-.86,1.67-1.13.64-.27,1.33-.41,2.05-.41s1.44.14,2.09.41c.64.27,1.21.65,1.67,1.13.47.48.85,1.05,1.12,1.69.27.64.41,1.33.41,2.05s-.14,1.42-.41,2.05c-.27.64-.65,1.21-1.12,1.68Z"/><path class="cls-4" d="M458.74,407.95c-.15,0-.31,0-.46,0-5.33-.12-10.26-2.37-13.86-6.32-6.33-6.94-6.33-19.1,0-26.04,6.54-7.17,17.46-8.39,25.39-2.84,1,.7,1.63,1.8,1.74,3.03.11,1.25-.33,2.47-1.22,3.35-1.35,1.35-3.5,1.5-5.1.35-4.52-3.24-10.83-2.62-14.66,1.43-4.02,4.25-4.02,11.15,0,15.4,3.55,3.75,9.16,4.6,13.65,2.07.34-.19.56-.51.61-.89.03-.21.03-.62-.33-.97-.37-.37-.96-.43-1.48-.14-4.11,2.28-9.18,1.01-11.78-2.97-1.88-2.87-1.88-6.73,0-9.6,1.5-2.29,3.89-3.76,6.56-4.03,2.68-.28,5.3.66,7.19,2.55.59.59.59,1.54,0,2.12-.59.59-1.54.59-2.12,0-1.26-1.26-2.99-1.88-4.76-1.69-1.8.18-3.34,1.14-4.36,2.69-1.24,1.89-1.24,4.42,0,6.31,1.73,2.64,5.09,3.5,7.81,1.99,1.7-.94,3.73-.68,5.06.64.93.93,1.36,2.21,1.18,3.5-.18,1.32-.95,2.44-2.11,3.1-5.69,3.21-12.81,2.13-17.31-2.62-5.09-5.38-5.09-14.14,0-19.52,4.86-5.14,12.85-5.91,18.59-1.81.41.29.91.28,1.22-.04.25-.25.38-.6.35-.96-.02-.2-.1-.57-.47-.83-6.7-4.69-15.92-3.66-21.45,2.4-5.34,5.86-5.34,16.13,0,21.99,3.05,3.34,7.21,5.24,11.71,5.34,4.5.09,8.75-1.59,11.93-4.78.59-.59,1.54-.59,2.12,0,.59.59.59,1.54,0,2.12-3.66,3.66-8.5,5.67-13.67,5.67Z"/><rect class="cls-4" x="503.73" y="378.7" width="2.84" height="3.63"/><path class="cls-4" d="M586.78,392.45c-.22-.45-.5-.85-.85-1.19-.35-.34-.77-.61-1.24-.81-.48-.2-.98-.3-1.51-.3h-1.82c-.3,0-.55-.1-.77-.31-.22-.21-.34-.45-.37-.78-.03-.16-.03-.31,0-.48.03-.32.15-.57.37-.78.22-.2.47-.31.77-.31h5.35v-2.84h-5.35c-.53,0-1.03.1-1.49.29-.46.19-.88.46-1.24.8s-.65.74-.87,1.19c-.22.46-.34.95-.35,1.42-.02.12-.03.27-.03.46s.01.34.03.42c.02.53.14,1.03.36,1.49.22.45.51.85.87,1.18.36.33.77.59,1.23.78.47.19.97.29,1.49.29h1.79c.33,0,.59.11.81.32.22.22.34.49.35.81v.49c-.02.06-.03.12-.03.2v.07c-.08.25-.21.46-.42.64-.2.18-.44.27-.72.27h-9.99c-.47,0-.86-.12-1.19-.36-.3-.23-.45-.49-.45-.8v-16.17h-2.82v16.17c0,.41.09.79.22,1.16h-5.28v-4.33c0-.98-.19-1.92-.56-2.79-.37-.86-.89-1.63-1.54-2.28-.65-.65-1.42-1.17-2.29-1.54-1.76-.75-3.87-.75-5.58,0-.85.37-1.62.89-2.27,1.54s-1.17,1.42-1.54,2.28c-.25.58-.38,1.19-.47,1.83h-4.79c-.09-.54-.23-1.07-.44-1.57-.37-.88-.89-1.64-1.54-2.28-.64-.64-1.41-1.15-2.28-1.52-1.74-.75-3.85-.75-5.57,0-.86.37-1.62.89-2.26,1.52-.65.64-1.17,1.41-1.54,2.28-.37.88-.56,1.82-.56,2.8v4.07h-6.3c.2-.25.41-.48.57-.76.63-1.08.95-2.29.95-3.6,0-.98-.19-1.93-.56-2.8-.37-.87-.89-1.64-1.54-2.28-.65-.64-1.42-1.15-2.28-1.52-1.75-.75-3.84-.75-5.57,0-.85.37-1.61.88-2.26,1.52-.65.64-1.17,1.41-1.54,2.28s-.56,1.82-.56,2.8.19,1.92.56,2.78c.25.58.59,1.1.97,1.59h-6.29v-10.95h-2.84v10.95h-11.72c-.18-.02-.33-.03-.44-.03-1.92,0-3.5-.66-4.76-1.98-1.26-1.32-1.89-3-1.89-5.04s.65-3.82,1.94-5.14c1.29-1.32,2.97-1.98,5.03-1.98,1.07,0,2.08.18,3.05.55.97.37,1.88.92,2.75,1.66l.17-3.09c-.94-.65-1.92-1.14-2.92-1.46-1-.32-2.06-.48-3.17-.48-1.41,0-2.72.24-3.93.71-1.21.48-2.28,1.18-3.22,2.11-.94.92-1.65,1.99-2.14,3.2-.49,1.22-.74,2.51-.74,3.9s.25,2.69.74,3.91c.49,1.22,1.2,2.29,2.12,3.19.93.92,2,1.62,3.23,2.09,1.13.44,2.37.65,3.69.68v.03h27.13c.31.02.62.06.89.18.33.14.62.34.87.6.25.25.46.54.6.87.14.32.21.68.21,1.06s-.08.72-.25,1.04c-.17.33-.4.62-.69.88-.28.25-.63.46-1.03.6-.4.14-.82.22-1.26.22h-.29v2.82h.29c.82,0,1.61-.15,2.34-.44.73-.3,1.37-.69,1.92-1.19.55-.5.99-1.09,1.31-1.77.32-.68.48-1.41.48-2.16,0-.81-.18-1.6-.53-2.33-.07-.14-.15-.26-.22-.38h9.95v-6.88c0-.59.12-1.16.35-1.68.23-.53.54-.99.93-1.39.38-.39.85-.71,1.37-.93,1.07-.45,2.35-.43,3.39,0,.52.22.98.53,1.37.93.39.4.69.86.92,1.39s.33,1.09.33,1.68v6.88h2.84v-5.3h4.84c.09.32.16.64.29.94.37.87.89,1.63,1.54,2.27.65.64,1.41,1.15,2.26,1.52.86.37,1.79.56,2.78.56.93,0,1.81-.16,2.62-.48.58-.23,1.12-.53,1.62-.89v1.38h22.47c.55,0,1.07-.1,1.55-.3.48-.2.9-.48,1.26-.84.35-.35.63-.77.85-1.22.22-.47.33-.98.33-1.53v-.75c-.02-.53-.14-1.03-.36-1.49ZM514.48,389.72c.23-.53.55-1,.93-1.39.38-.39.85-.7,1.37-.93.52-.22,1.09-.33,1.68-.33s1.18.11,1.71.33c.53.22.99.53,1.37.92.39.4.69.86.92,1.39s.33,1.09.33,1.68-.11,1.16-.33,1.68c-.22.52-.53.98-.91,1.37-.39.39-.85.7-1.38.93-1.03.45-2.32.46-3.38,0-.53-.23-.99-.54-1.38-.93-.39-.39-.7-.85-.93-1.38-.23-.52-.34-1.09-.34-1.68s.12-1.16.34-1.68ZM559.53,394.49c-.38.38-.84.7-1.38.93-1.03.45-2.32.47-3.38,0-.53-.23-.99-.54-1.38-.93-.38-.38-.7-.84-.93-1.38-.23-.52-.35-1.09-.35-1.68s.12-1.16.35-1.68c.23-.53.54-1,.93-1.39.38-.39.84-.7,1.37-.92.53-.22,1.09-.33,1.68-.33s1.18.11,1.71.33c.53.22.99.53,1.37.93.39.39.7.86.92,1.39.22.52.33,1.09.33,1.68s-.11,1.16-.33,1.68c-.22.53-.53.99-.92,1.37Z"/><path class="cls-4" d="M307.92,410.28c-.32,0-.64,0-.96-.01-11.13-.26-21.4-4.94-28.92-13.19-6.34-6.95-9.98-16.86-9.98-27.17,0-10.31,3.64-20.21,9.98-27.17,13.65-14.97,36.43-17.52,52.98-5.92,2.08,1.46,3.41,3.76,3.63,6.32.23,2.6-.7,5.14-2.54,6.99-2.82,2.82-7.29,3.13-10.63.74-9.44-6.75-22.59-5.47-30.59,2.98-8.38,8.86-8.38,23.27,0,32.13,7.41,7.83,19.12,9.61,28.49,4.32.7-.39,1.16-1.07,1.27-1.86.06-.44.05-1.3-.68-2.03s-2.01-.89-3.09-.29c-8.58,4.76-19.16,2.1-24.59-6.19-3.92-5.99-3.92-14.04,0-20.03,3.13-4.77,8.12-7.84,13.7-8.42,5.58-.58,11.05,1.37,15.01,5.33,1.22,1.22,1.22,3.21,0,4.43s-3.21,1.22-4.43,0c-2.62-2.62-6.24-3.91-9.94-3.53-3.75.39-6.98,2.38-9.1,5.62-2.58,3.94-2.58,9.23,0,13.16,3.61,5.52,10.62,7.3,16.3,4.15,3.55-1.97,7.79-1.43,10.56,1.34,1.94,1.94,2.83,4.6,2.46,7.31-.38,2.74-1.98,5.1-4.4,6.47-11.88,6.7-26.73,4.45-36.12-5.48-10.63-11.23-10.63-29.51,0-40.74,10.14-10.72,26.82-12.34,38.79-3.77.85.61,1.9.58,2.55-.07.53-.53.79-1.26.73-2.01-.04-.41-.21-1.19-.98-1.73-13.98-9.79-33.22-7.64-44.76,5.02-11.15,12.22-11.15,33.66,0,45.89,6.36,6.97,15.04,10.93,24.44,11.15,9.39.22,18.25-3.33,24.9-9.98,1.22-1.22,3.21-1.22,4.43,0,1.22,1.22,1.22,3.21,0,4.43-7.65,7.65-17.74,11.82-28.52,11.82Z"/><rect class="cls-4" x="269.41" y="418.02" width="3.47" height="4.44"/><path class="cls-4" d="M370.84,434.81c-.26-.55-.61-1.04-1.04-1.45-.43-.42-.94-.75-1.51-.99-.58-.24-1.2-.37-1.84-.37h-2.22c-.36,0-.67-.12-.94-.37-.27-.25-.42-.55-.46-.95-.04-.19-.04-.37,0-.58.03-.39.18-.7.45-.95.27-.25.58-.37.94-.37h6.54v-3.47h-6.54c-.64,0-1.26.12-1.82.35-.56.23-1.07.56-1.51.97s-.79.9-1.06,1.45c-.27.56-.41,1.16-.43,1.74-.02.14-.04.33-.04.56s.01.41.03.51c.02.64.17,1.25.44,1.82.27.55.62,1.04,1.06,1.44.44.4.94.72,1.51.95.57.23,1.18.35,1.82.35h2.19c.4,0,.73.13.99.39.27.27.41.6.43.99v.6c-.02.07-.03.15-.03.24v.08c-.09.3-.26.56-.51.79-.25.22-.53.33-.88.33h-12.2c-.57,0-1.05-.15-1.45-.45-.37-.28-.55-.6-.55-.98v-19.75h-3.44v19.75c0,.5.11.97.26,1.42h-6.45v-5.29c0-1.2-.23-2.35-.69-3.41-.45-1.06-1.09-1.99-1.88-2.79-.79-.79-1.74-1.42-2.8-1.88-2.15-.91-4.72-.91-6.82,0-1.04.45-1.97,1.09-2.77,1.88s-1.43,1.73-1.88,2.78c-.3.7-.47,1.46-.57,2.23h-5.85c-.11-.66-.28-1.31-.54-1.92-.46-1.07-1.09-2.01-1.88-2.78-.79-.78-1.72-1.41-2.78-1.86-2.12-.91-4.71-.91-6.8,0-1.05.46-1.98,1.08-2.76,1.86-.79.78-1.43,1.72-1.88,2.79-.46,1.07-.69,2.22-.69,3.42v4.97h-7.7c.24-.31.5-.59.7-.93.77-1.32,1.16-2.8,1.16-4.4,0-1.2-.23-2.35-.69-3.42-.46-1.07-1.09-2-1.88-2.79-.79-.78-1.73-1.41-2.78-1.86-2.13-.91-4.69-.91-6.8,0-1.04.45-1.97,1.08-2.77,1.86-.79.78-1.42,1.72-1.88,2.79s-.69,2.22-.69,3.42.23,2.35.69,3.39c.31.71.73,1.34,1.19,1.94h-7.68v-13.37h-3.47v13.37h-14.31c-.21-.02-.4-.04-.54-.04-2.34,0-4.28-.81-5.81-2.42-1.54-1.61-2.3-3.66-2.3-6.15s.79-4.66,2.37-6.28c1.58-1.61,3.63-2.42,6.14-2.42,1.3,0,2.54.23,3.72.68,1.18.45,2.3,1.13,3.36,2.03l.2-3.78c-1.15-.8-2.34-1.39-3.57-1.79-1.23-.39-2.52-.59-3.87-.59-1.72,0-3.32.29-4.8.87-1.48.58-2.79,1.44-3.93,2.57-1.14,1.12-2.02,2.43-2.62,3.91-.6,1.49-.91,3.07-.91,4.76s.3,3.28.91,4.77c.6,1.5,1.47,2.79,2.59,3.89,1.13,1.12,2.45,1.97,3.94,2.55,1.38.54,2.89.79,4.51.83v.03h33.13c.38.02.75.07,1.09.22.4.17.76.42,1.07.73.31.31.56.67.73,1.06.17.39.26.83.26,1.3s-.1.88-.3,1.27c-.2.4-.49.76-.84,1.07-.35.31-.77.56-1.26.74-.49.18-1,.27-1.54.27h-.35v3.44h.35c1,0,1.96-.18,2.85-.54.89-.36,1.67-.85,2.34-1.45.68-.61,1.21-1.34,1.6-2.16.39-.83.58-1.72.58-2.64,0-.99-.22-1.95-.65-2.85-.08-.17-.18-.31-.27-.47h12.16v-8.41c0-.72.14-1.41.42-2.05.28-.64.66-1.21,1.14-1.7.47-.48,1.03-.86,1.67-1.13,1.31-.54,2.87-.53,4.14,0,.64.27,1.2.65,1.67,1.13.47.48.85,1.05,1.12,1.69s.41,1.33.41,2.05v8.41h3.47v-6.47h5.91c.1.39.2.78.36,1.15.45,1.06,1.08,1.99,1.88,2.77.79.78,1.72,1.4,2.76,1.86,1.05.46,2.19.69,3.4.69,1.13,0,2.21-.2,3.2-.59.71-.28,1.37-.65,1.97-1.09v1.68h27.44c.67,0,1.3-.12,1.89-.37.59-.24,1.1-.59,1.53-1.03.42-.43.77-.94,1.03-1.5.27-.57.4-1.2.4-1.87v-.91c-.02-.65-.17-1.26-.44-1.82ZM282.54,431.48c.28-.65.67-1.22,1.14-1.7.47-.48,1.03-.86,1.67-1.13.64-.27,1.33-.41,2.05-.41s1.45.14,2.09.41c.64.27,1.2.65,1.67,1.13.47.48.85,1.06,1.12,1.7s.41,1.33.41,2.05-.14,1.41-.41,2.05c-.27.64-.65,1.2-1.12,1.67-.47.47-1.04.85-1.68,1.14-1.26.55-2.83.56-4.13,0-.64-.28-1.21-.66-1.68-1.14-.47-.47-.85-1.04-1.14-1.68-.28-.64-.42-1.33-.42-2.05s.14-1.41.42-2.05ZM337.56,437.31c-.47.47-1.03.85-1.68,1.13-1.26.55-2.83.57-4.13,0-.65-.28-1.21-.66-1.68-1.14-.47-.47-.85-1.03-1.13-1.68-.28-.64-.42-1.33-.42-2.05s.14-1.41.42-2.05c.28-.65.67-1.22,1.14-1.7.46-.48,1.03-.86,1.67-1.13.64-.27,1.33-.41,2.05-.41s1.44.14,2.09.41c.64.27,1.21.65,1.67,1.13.47.48.85,1.05,1.12,1.69.27.64.41,1.33.41,2.05s-.14,1.42-.41,2.05c-.27.64-.65,1.21-1.12,1.68Z"/><path class="cls-4" d="M646.49,407.95c-.15,0-.31,0-.46,0-5.33-.12-10.26-2.37-13.86-6.32-6.33-6.94-6.33-19.1,0-26.04,6.54-7.17,17.46-8.39,25.39-2.84,1,.7,1.63,1.8,1.74,3.03.11,1.25-.33,2.47-1.22,3.35-1.35,1.35-3.5,1.5-5.1.35-4.52-3.24-10.83-2.62-14.66,1.43-4.02,4.25-4.02,11.15,0,15.4,3.55,3.75,9.16,4.6,13.65,2.07.34-.19.56-.51.61-.89.03-.21.03-.62-.33-.97-.37-.37-.96-.43-1.48-.14-4.11,2.28-9.18,1.01-11.78-2.97-1.88-2.87-1.88-6.73,0-9.6,1.5-2.29,3.89-3.76,6.56-4.03,2.68-.28,5.3.66,7.19,2.55.59.59.59,1.54,0,2.12-.59.59-1.54.59-2.12,0-1.26-1.26-2.99-1.88-4.76-1.69-1.8.18-3.34,1.14-4.36,2.69-1.24,1.89-1.24,4.42,0,6.31,1.73,2.64,5.09,3.5,7.81,1.99,1.7-.94,3.73-.68,5.06.64.93.93,1.36,2.21,1.18,3.5-.18,1.32-.95,2.44-2.11,3.1-5.69,3.21-12.81,2.13-17.31-2.62-5.09-5.38-5.09-14.14,0-19.52,4.86-5.14,12.85-5.91,18.59-1.81.41.29.91.28,1.22-.04.25-.25.38-.6.35-.96-.02-.2-.1-.57-.47-.83-6.7-4.69-15.92-3.66-21.45,2.4-5.34,5.86-5.34,16.13,0,21.99,3.05,3.34,7.21,5.24,11.71,5.34,4.5.09,8.75-1.59,11.93-4.78.59-.59,1.54-.59,2.12,0,.59.59.59,1.54,0,2.12-3.66,3.66-8.5,5.67-13.67,5.67Z"/><rect class="cls-4" x="691.47" y="378.7" width="2.84" height="3.63"/><path class="cls-4" d="M774.53,392.45c-.22-.45-.5-.85-.85-1.19-.35-.34-.77-.61-1.24-.81-.48-.2-.98-.3-1.51-.3h-1.82c-.3,0-.55-.1-.77-.31-.22-.21-.34-.45-.37-.78-.03-.16-.03-.31,0-.48.03-.32.15-.57.37-.78.22-.2.47-.31.77-.31h5.35v-2.84h-5.35c-.53,0-1.03.1-1.49.29-.46.19-.88.46-1.24.8s-.65.74-.87,1.19c-.22.46-.34.95-.35,1.42-.02.12-.03.27-.03.46s.01.34.03.42c.02.53.14,1.03.36,1.49.22.45.51.85.87,1.18.36.33.77.59,1.23.78.47.19.97.29,1.49.29h1.79c.33,0,.59.11.81.32.22.22.34.49.35.81v.49c-.02.06-.03.12-.03.2v.07c-.08.25-.21.46-.42.64-.2.18-.44.27-.72.27h-9.99c-.47,0-.86-.12-1.19-.36-.3-.23-.45-.49-.45-.8v-16.17h-2.82v16.17c0,.41.09.79.22,1.16h-5.28v-4.33c0-.98-.19-1.92-.56-2.79-.37-.86-.89-1.63-1.54-2.28-.65-.65-1.42-1.17-2.29-1.54-1.76-.75-3.87-.75-5.58,0-.85.37-1.62.89-2.27,1.54s-1.17,1.42-1.54,2.28c-.25.58-.38,1.19-.47,1.83h-4.79c-.09-.54-.23-1.07-.44-1.57-.37-.88-.89-1.64-1.54-2.28-.64-.64-1.41-1.15-2.28-1.52-1.74-.75-3.85-.75-5.57,0-.86.37-1.62.89-2.26,1.52-.65.64-1.17,1.41-1.54,2.28-.37.88-.56,1.82-.56,2.8v4.07h-6.3c.2-.25.41-.48.57-.76.63-1.08.95-2.29.95-3.6,0-.98-.19-1.93-.56-2.8-.37-.87-.89-1.64-1.54-2.28-.65-.64-1.42-1.15-2.28-1.52-1.75-.75-3.84-.75-5.57,0-.85.37-1.61.88-2.26,1.52-.65.64-1.17,1.41-1.54,2.28s-.56,1.82-.56,2.8.19,1.92.56,2.78c.25.58.59,1.1.97,1.59h-6.29v-10.95h-2.84v10.95h-11.72c-.18-.02-.33-.03-.44-.03-1.92,0-3.5-.66-4.76-1.98-1.26-1.32-1.89-3-1.89-5.04s.65-3.82,1.94-5.14c1.29-1.32,2.97-1.98,5.03-1.98,1.07,0,2.08.18,3.05.55.97.37,1.88.92,2.75,1.66l.17-3.09c-.94-.65-1.92-1.14-2.92-1.46-1-.32-2.06-.48-3.17-.48-1.41,0-2.72.24-3.93.71-1.21.48-2.28,1.18-3.22,2.11-.94.92-1.65,1.99-2.14,3.2-.49,1.22-.74,2.51-.74,3.9s.25,2.69.74,3.91c.49,1.22,1.2,2.29,2.12,3.19.93.92,2,1.62,3.23,2.09,1.13.44,2.37.65,3.69.68v.03h27.13c.31.02.62.06.89.18.33.14.62.34.87.6.25.25.46.54.6.87.14.32.21.68.21,1.06s-.08.72-.25,1.04c-.17.33-.4.62-.69.88-.28.25-.63.46-1.03.6-.4.14-.82.22-1.26.22h-.29v2.82h.29c.82,0,1.61-.15,2.34-.44.73-.3,1.37-.69,1.92-1.19.55-.5.99-1.09,1.31-1.77.32-.68.48-1.41.48-2.16,0-.81-.18-1.6-.53-2.33-.07-.14-.15-.26-.22-.38h9.95v-6.88c0-.59.12-1.16.35-1.68.23-.53.54-.99.93-1.39.38-.39.85-.71,1.37-.93,1.07-.45,2.35-.43,3.39,0,.52.22.98.53,1.37.93.39.4.69.86.92,1.39s.33,1.09.33,1.68v6.88h2.84v-5.3h4.84c.09.32.16.64.29.94.37.87.89,1.63,1.54,2.27.65.64,1.41,1.15,2.26,1.52.86.37,1.79.56,2.78.56.93,0,1.81-.16,2.62-.48.58-.23,1.12-.53,1.62-.89v1.38h22.47c.55,0,1.07-.1,1.55-.3.48-.2.9-.48,1.26-.84.35-.35.63-.77.85-1.22.22-.47.33-.98.33-1.53v-.75c-.02-.53-.14-1.03-.36-1.49ZM702.23,389.72c.23-.53.55-1,.93-1.39.38-.39.85-.7,1.37-.93.52-.22,1.09-.33,1.68-.33s1.18.11,1.71.33c.53.22.99.53,1.37.92.39.4.69.86.92,1.39s.33,1.09.33,1.68-.11,1.16-.33,1.68c-.22.52-.53.98-.91,1.37-.39.39-.85.7-1.38.93-1.03.45-2.32.46-3.38,0-.53-.23-.99-.54-1.38-.93-.39-.39-.7-.85-.93-1.38-.23-.52-.34-1.09-.34-1.68s.12-1.16.34-1.68ZM747.28,394.49c-.38.38-.84.7-1.38.93-1.03.45-2.32.47-3.38,0-.53-.23-.99-.54-1.38-.93-.38-.38-.7-.84-.93-1.38-.23-.52-.35-1.09-.35-1.68s.12-1.16.35-1.68c.23-.53.54-1,.93-1.39.38-.39.84-.7,1.37-.92.53-.22,1.09-.33,1.68-.33s1.18.11,1.71.33c.53.22.99.53,1.37.93.39.39.7.86.92,1.39.22.52.33,1.09.33,1.68s-.11,1.16-.33,1.68c-.22.53-.53.99-.92,1.37Z"/></svg>